{
	"asset":{
		"generator":"Khronos glTF Blender I/O v3.6.27",
		"version":"2.0"
	},
	"extensionsUsed":[
		"KHR_materials_unlit"
	],
	"scene":0,
	"scenes":[
		{
			"name":"Scene",
			"nodes":[
				40,
				52
			]
		}
	],
	"nodes":[
		{
			"name":"Cube_35",
			"scale":[
				50,
				30,
				0.20000000298023224
			],
			"translation":[
				0.07769275456666946,
				12.761451721191406,
				-2.2358615398406982
			]
		},
		{
			"mesh":0,
			"name":"Object_36"
		},
		{
			"children":[
				1
			],
			"name":"Hair3_30",
			"rotation":[
				0.41489923000335693,
				-0.29988282918930054,
				0.6048832535743713,
				0.6099550724029541
			],
			"scale":[
				0.3685762584209442,
				0.3685762584209442,
				0.3685762584209442
			],
			"translation":[
				-0.029219184070825577,
				1.7295475006103516,
				-0.18245670199394226
			]
		},
		{
			"name":"BaseSpiderMan_27"
		},
		{
			"name":"spine.006_0",
			"rotation":[
				-0.15884926915168762,
				3.1128891464504704e-08,
				-2.210858873752386e-08,
				0.9873028993606567
			],
			"scale":[
				1,
				1,
				0.9999999403953552
			],
			"translation":[
				-2.7052010409533978e-08,
				0.06270123273134232,
				2.8870999813079834e-08
			]
		},
		{
			"children":[
				4
			],
			"name":"spine.005_1",
			"rotation":[
				-0.04675692692399025,
				0.14742974936962128,
				0.1399446278810501,
				0.9780049920082092
			],
			"scale":[
				0.9999998211860657,
				0.9999998807907104,
				1
			],
			"translation":[
				-1.0157236829400063e-08,
				0.06616351008415222,
				-1.1199153959751129e-07
			]
		},
		{
			"children":[
				5
			],
			"name":"spine.004_2",
			"rotation":[
				0.20173777639865875,
				1.1683852818578089e-07,
				2.460384074254307e-08,
				0.9794396162033081
			],
			"scale":[
				0.9999999403953552,
				0.9999997019767761,
				0.9999998807907104
			],
			"translation":[
				9.313225746154785e-10,
				0.19257840514183044,
				1.862645149230957e-09
			]
		},
		{
			"name":"hand.L_3",
			"rotation":[
				-0.1330140233039856,
				0.016294388100504875,
				0.5110613107681274,
				0.8490336537361145
			],
			"scale":[
				1.000000238418579,
				1.000000238418579,
				0.9999999403953552
			],
			"translation":[
				-1.8998980522155762e-07,
				0.27054858207702637,
				-4.0512531995773315e-08
			]
		},
		{
			"children":[
				7
			],
			"name":"forearm.L_4",
			"rotation":[
				0.1591213196516037,
				0.02575916051864624,
				0.09643875807523727,
				0.9821997880935669
			],
			"scale":[
				0.9999999403953552,
				0.9999998211860657,
				1.000000238418579
			],
			"translation":[
				1.471489667892456e-07,
				0.27600735425949097,
				-4.470348358154297e-08
			]
		},
		{
			"children":[
				8
			],
			"name":"upper_arm.L_5",
			"rotation":[
				-0.3769943416118622,
				0.6482378244400024,
				-0.41790029406547546,
				0.5128570199012756
			],
			"translation":[
				-0.028978396207094193,
				0.18228983879089355,
				-0.02310354635119438
			]
		},
		{
			"children":[
				9
			],
			"name":"shoulder.L_6",
			"rotation":[
				-0.5343524813652039,
				-0.4511845111846924,
				-0.4631749391555786,
				0.54439777135849
			],
			"scale":[
				1.0000003576278687,
				1.0000001192092896,
				1
			],
			"translation":[
				0.020864959806203842,
				0.14081616699695587,
				0.019222399219870567
			]
		},
		{
			"name":"hand.R_7",
			"rotation":[
				-0.00949056912213564,
				-0.12003126740455627,
				0.06255695968866348,
				0.9907518029212952
			],
			"scale":[
				0.9999998807907104,
				1.0000001192092896,
				1.0000001192092896
			],
			"translation":[
				2.7567148208618164e-07,
				0.27054864168167114,
				5.960464477539063e-08
			]
		},
		{
			"children":[
				11
			],
			"name":"forearm.R_8",
			"rotation":[
				0.45491501688957214,
				0.09021635353565216,
				0.01041476335376501,
				0.8858921527862549
			],
			"scale":[
				0.9999998211860657,
				1,
				0.9999999403953552
			],
			"translation":[
				-2.207234501838684e-07,
				0.2760072350502014,
				-2.2351741790771484e-08
			]
		},
		{
			"children":[
				12
			],
			"name":"upper_arm.R_9",
			"rotation":[
				0.41547834873199463,
				-0.43878620862960815,
				0.535940945148468,
				0.5895860195159912
			],
			"scale":[
				1,
				1.0000001192092896,
				1.000000238418579
			],
			"translation":[
				0.02897842973470688,
				0.18228980898857117,
				-0.02310342527925968
			]
		},
		{
			"children":[
				13
			],
			"name":"shoulder.R_10",
			"rotation":[
				-0.5343524813652039,
				0.45118454098701477,
				0.4631749987602234,
				0.54439777135849
			],
			"scale":[
				1.000000238418579,
				1.0000001192092896,
				1
			],
			"translation":[
				-0.020864957943558693,
				0.1408161073923111,
				0.019222408533096313
			]
		},
		{
			"name":"breast.L_11",
			"rotation":[
				5.827802240787605e-08,
				0.6969361901283264,
				0.7171331644058228,
				4.902496897329911e-08
			],
			"scale":[
				0.9999999403953552,
				0.9999997019767761,
				0.9999999403953552
			],
			"translation":[
				0.11839999258518219,
				-0.0048813060857355595,
				-0.042756810784339905
			]
		},
		{
			"name":"breast.R_12",
			"rotation":[
				5.827802240787605e-08,
				0.6969361901283264,
				0.7171331644058228,
				4.902496897329911e-08
			],
			"scale":[
				0.9999999403953552,
				0.9999997019767761,
				0.9999999403953552
			],
			"translation":[
				-0.11839998513460159,
				-0.004881294909864664,
				-0.0427568182349205
			]
		},
		{
			"children":[
				6,
				10,
				14,
				15,
				16
			],
			"name":"spine.003_13",
			"rotation":[
				0.003528762375935912,
				-0.0650472491979599,
				0.011554626747965813,
				0.997809112071991
			],
			"scale":[
				1,
				0.9999998211860657,
				0.9999999403953552
			],
			"translation":[
				3.259629011154175e-09,
				0.17288748919963837,
				7.068592822179198e-09
			]
		},
		{
			"children":[
				17
			],
			"name":"spine.002_14",
			"rotation":[
				-0.07746412605047226,
				-1.0538148131900016e-07,
				-1.0771680436505449e-08,
				0.9969951510429382
			],
			"scale":[
				1,
				1,
				0.9999999403953552
			],
			"translation":[
				-1.6880221664905548e-09,
				0.13663682341575623,
				-7.1202521212399e-08
			]
		},
		{
			"children":[
				18
			],
			"name":"spine.001_15",
			"rotation":[
				0.7342901229858398,
				0.02255329117178917,
				-0.004082146100699902,
				0.6784487366676331
			],
			"scale":[
				1,
				1,
				1.0000001192092896
			],
			"translation":[
				4.4674379751086235e-09,
				0.1522194892168045,
				-6.688060238957405e-08
			]
		},
		{
			"name":"pelvis.L_16",
			"rotation":[
				-0.15245507657527924,
				-0.793330729007721,
				-0.28550398349761963,
				0.5156270861625671
			],
			"scale":[
				1,
				1.0000001192092896,
				0.9999999403953552
			],
			"translation":[
				-1.3647767360680518e-09,
				1.2760505541109524e-08,
				-2.8109599092829285e-09
			]
		},
		{
			"name":"pelvis.R_17",
			"rotation":[
				-0.15245506167411804,
				0.793330729007721,
				0.2855038642883301,
				0.5156271457672119
			],
			"scale":[
				1.000000238418579,
				1.0000004768371582,
				1
			],
			"translation":[
				-1.3647768470903543e-09,
				1.2760509093823202e-08,
				-2.810960797461348e-09
			]
		},
		{
			"name":"toe.L_18",
			"rotation":[
				-0.017176026478409767,
				-0.9830812215805054,
				0.1623639017343521,
				0.08303198218345642
			],
			"scale":[
				0.9999998211860657,
				0.9999997615814209,
				0.9999997019767761
			],
			"translation":[
				1.0244548320770264e-08,
				0.15230053663253784,
				-1.0989606380462646e-07
			]
		},
		{
			"children":[
				22
			],
			"name":"foot.L_19",
			"rotation":[
				-0.5729673504829407,
				-0.05695759505033493,
				0.11365082859992981,
				0.8096590638160706
			],
			"scale":[
				0.9999999403953552,
				0.9999998211860657,
				0.9999999403953552
			],
			"translation":[
				-2.7997884899377823e-08,
				0.49220818281173706,
				2.8172507882118225e-08
			]
		},
		{
			"children":[
				23
			],
			"name":"shin.L_20",
			"rotation":[
				-0.05224691331386566,
				0.0077966670505702496,
				0.0051100486889481544,
				0.9985906481742859
			],
			"scale":[
				0.9999998807907104,
				0.9999998807907104,
				0.9999998807907104
			],
			"translation":[
				7.828930392861366e-09,
				0.556571900844574,
				4.0745362639427185e-10
			]
		},
		{
			"children":[
				24
			],
			"name":"thigh.L_21",
			"rotation":[
				0.9957697987556458,
				0.041367530822753906,
				-0.009025209583342075,
				0.08154628425836563
			],
			"scale":[
				0.9999992847442627,
				0.9999999403953552,
				0.9999974370002747
			],
			"translation":[
				0.09800000488758087,
				0.0708184763789177,
				0.02594216912984848
			]
		},
		{
			"name":"toe.R_22",
			"rotation":[
				-0.017176015302538872,
				0.9830812215805054,
				-0.16236387193202972,
				0.08303197473287582
			],
			"scale":[
				0.9999998807907104,
				1.0000005960464478,
				1
			],
			"translation":[
				-1.862645149230957e-08,
				0.152300626039505,
				4.0978193283081055e-08
			]
		},
		{
			"children":[
				26
			],
			"name":"foot.R_23",
			"rotation":[
				-0.6419007182121277,
				0.1079602837562561,
				-0.1400502622127533,
				0.7461192607879639
			],
			"scale":[
				1,
				0.9999998807907104,
				0.9999999403953552
			],
			"translation":[
				1.0244548320770264e-08,
				0.49220800399780273,
				1.5832483768463135e-08
			]
		},
		{
			"children":[
				27
			],
			"name":"shin.R_24",
			"rotation":[
				0.5964024066925049,
				0.016847044229507446,
				0.06130547821521759,
				0.800163745880127
			],
			"scale":[
				0.9999998211860657,
				1.000000238418579,
				0.9999999403953552
			],
			"translation":[
				2.60770320892334e-08,
				0.556571900844574,
				4.7497451305389404e-08
			]
		},
		{
			"children":[
				28
			],
			"name":"thigh.R_25",
			"rotation":[
				0.9190534949302673,
				0.052266884595155716,
				0.04492681846022606,
				0.38805994391441345
			],
			"scale":[
				0.9999991655349731,
				0.9999986290931702,
				0.9999988675117493
			],
			"translation":[
				-0.09800001233816147,
				0.07081849128007889,
				0.02594219520688057
			]
		},
		{
			"children":[
				19,
				20,
				21,
				25,
				29
			],
			"name":"spine_26",
			"rotation":[
				-0.4273392856121063,
				-0.566514790058136,
				-0.44024142622947693,
				0.5501179695129395
			],
			"scale":[
				0.9999999403953552,
				1,
				0.9999998807907104
			],
			"translation":[
				-1.0942446948547513e-08,
				1.0098998546600342,
				-0.05520007014274597
			]
		},
		{
			"children":[
				30
			],
			"name":"GLTF_created_0_rootJoint",
			"rotation":[
				-8.557137221032463e-09,
				1.7114274442064925e-08,
				-2.928983286277023e-16,
				1
			]
		},
		{
			"mesh":1,
			"name":"Object_7",
			"skin":0
		},
		{
			"children":[
				3,
				32,
				31
			],
			"name":"GLTF_created_0"
		},
		{
			"children":[
				33
			],
			"name":"metarig_28",
			"scale":[
				2.2872390747070312,
				2.2872390747070312,
				2.2872390747070312
			],
			"translation":[
				0,
				-2.123006820678711,
				0
			]
		},
		{
			"mesh":2,
			"name":"Object_40"
		},
		{
			"children":[
				35
			],
			"name":"Plane_34",
			"scale":[
				4,
				1,
				1.5
			],
			"translation":[
				0.016389936208724976,
				0,
				-0.4551154375076294
			]
		},
		{
			"name":"sUnRiseSet-sunsets-and-sunrises-32435094-1500-528_33",
			"rotation":[
				0.70710688829422,
				0,
				0,
				0.7071066498756409
			],
			"scale":[
				12.354490280151367,
				12.3544921875,
				12.3544921875
			],
			"translation":[
				-1.4674477577209473,
				3.0045547485351562,
				26.533138275146484
			]
		},
		{
			"children":[
				0,
				2,
				34,
				36,
				37
			],
			"name":"GLTF_SceneRootNode",
			"rotation":[
				0.70710688829422,
				0,
				0,
				0.7071066498756409
			]
		},
		{
			"children":[
				38
			],
			"name":"root"
		},
		{
			"children":[
				39
			],
			"name":"Sketchfab_model",
			"rotation":[
				-0.70710688829422,
				0,
				0,
				0.7071066498756409
			]
		},
		{
			"mesh":3,
			"name":"bulles_bulles_0"
		},
		{
			"children":[
				41
			],
			"name":"bulles",
			"rotation":[
				-0.70710688829422,
				0,
				0,
				0.7071066498756409
			],
			"scale":[
				2.2485132217407227,
				2.2485134601593018,
				2.2485134601593018
			],
			"translation":[
				-65.47239685058594,
				111.5275650024414,
				-0.028312191367149353
			]
		},
		{
			"name":"decor",
			"rotation":[
				-0.70710688829422,
				0,
				0,
				0.7071066498756409
			],
			"scale":[
				124.86453247070312,
				124.86455535888672,
				100.00001525878906
			],
			"translation":[
				0,
				-8.689436072017998e-06,
				0
			]
		},
		{
			"mesh":4,
			"name":"petitpoisson.013_petitpoisson_0",
			"scale":[
				0.6669930219650269,
				0.6669930815696716,
				0.6669930815696716
			],
			"translation":[
				-0.18417340517044067,
				-0.44578176736831665,
				-0.194184809923172
			]
		},
		{
			"children":[
				44
			],
			"name":"petitpoisson.013",
			"rotation":[
				-0.627170205116272,
				-0.13458822667598724,
				-0.0731901153922081,
				0.7636666297912598
			],
			"scale":[
				131.02658081054688,
				131.0265655517578,
				131.0265655517578
			],
			"translation":[
				32.61873245239258,
				167.18910217285156,
				-92.31819915771484
			]
		},
		{
			"mesh":5,
			"name":"rayons_rayons_0",
			"translation":[
				-0.0690096989274025,
				0.10492664575576782,
				0.08153410255908966
			]
		},
		{
			"children":[
				46
			],
			"name":"rayons",
			"scale":[
				100,
				100,
				100
			],
			"translation":[
				0,
				181.8210906982422,
				0
			]
		},
		{
			"name":"support",
			"rotation":[
				-0.70710688829422,
				0,
				0,
				0.7071066498756409
			],
			"scale":[
				100,
				100.00001525878906,
				20.722820281982422
			],
			"translation":[
				0,
				-8.689436072017998e-06,
				0
			]
		},
		{
			"name":"veerre",
			"rotation":[
				-0.70710688829422,
				0,
				0,
				0.7071066498756409
			],
			"scale":[
				124.37165832519531,
				124.37167358398438,
				100.00001525878906
			],
			"translation":[
				0,
				-8.689436072017998e-06,
				0
			]
		},
		{
			"children":[
				42,
				43,
				45,
				47,
				48,
				49
			],
			"name":"RootNode",
			"translation":[
				0,
				-8.689436072017998e-06,
				0
			]
		},
		{
			"children":[
				50
			],
			"name":"e3980754db0c49318b2e3d07fd7e3661.fbx",
			"rotation":[
				0.70710688829422,
				0,
				0,
				0.7071066498756409
			]
		},
		{
			"children":[
				51
			],
			"name":"Sketchfab_model.001",
			"rotation":[
				-0.6414918899536133,
				-0.2974696159362793,
				-0.2974696159362793,
				0.6414918899536133
			],
			"scale":[
				0.20413577556610107,
				0.20413580536842346,
				0.20413577556610107
			],
			"translation":[
				1.4899969100952148,
				-20.18628692626953,
				-1.5959243774414062
			]
		}
	],
	"materials":[
		{
			"doubleSided":true,
			"extensions":{
				"KHR_materials_unlit":{}
			},
			"name":"Default_OBJ",
			"pbrMetallicRoughness":{
				"baseColorFactor":[
					0,
					0,
					0,
					1
				],
				"metallicFactor":0,
				"roughnessFactor":0.9
			}
		},
		{
			"doubleSided":true,
			"extensions":{
				"KHR_materials_unlit":{}
			},
			"name":"Material.001",
			"pbrMetallicRoughness":{
				"baseColorFactor":[
					0,
					0,
					0,
					1
				],
				"metallicFactor":0,
				"roughnessFactor":0.9
			}
		},
		{
			"doubleSided":true,
			"extensions":{
				"KHR_materials_unlit":{}
			},
			"name":"Material.003",
			"pbrMetallicRoughness":{
				"baseColorFactor":[
					0.003512184601277113,
					0.003512184601277113,
					0.003512184601277113,
					1
				],
				"metallicFactor":0,
				"roughnessFactor":0.9
			}
		},
		{
			"alphaMode":"BLEND",
			"doubleSided":true,
			"emissiveFactor":[
				1,
				1,
				1
			],
			"name":"bulles",
			"pbrMetallicRoughness":{
				"baseColorFactor":[
					0.800000011920929,
					0.800000011920929,
					0.800000011920929,
					0.1666666716337204
				],
				"metallicFactor":0,
				"roughnessFactor":0.9577051401138306
			}
		},
		{
			"alphaMode":"BLEND",
			"doubleSided":true,
			"emissiveFactor":[
				0.6790123581886292,
				0.6790123581886292,
				0.6790123581886292
			],
			"name":"petitpoisson",
			"pbrMetallicRoughness":{
				"baseColorFactor":[
					0,
					0,
					0,
					0.12345679104328156
				],
				"metallicFactor":0
			}
		},
		{
			"alphaMode":"BLEND",
			"emissiveFactor":[
				1,
				1,
				1
			],
			"name":"rayons",
			"pbrMetallicRoughness":{
				"baseColorFactor":[
					0.7076012492179871,
					1,
					0,
					0.018518518656492233
				],
				"metallicFactor":0
			}
		}
	],
	"meshes":[
		{
			"name":"Object_1",
			"primitives":[
				{
					"attributes":{
						"POSITION":0,
						"NORMAL":1
					},
					"indices":2,
					"material":0
				}
			]
		},
		{
			"name":"Object_0",
			"primitives":[
				{
					"attributes":{
						"POSITION":3,
						"NORMAL":4,
						"TEXCOORD_0":5,
						"JOINTS_0":6,
						"WEIGHTS_0":7
					},
					"indices":8,
					"material":1
				}
			]
		},
		{
			"name":"Object_3",
			"primitives":[
				{
					"attributes":{
						"POSITION":10,
						"NORMAL":11,
						"TEXCOORD_0":12
					},
					"indices":13,
					"material":2
				}
			]
		},
		{
			"name":"bulles_bulles_0",
			"primitives":[
				{
					"attributes":{
						"POSITION":14,
						"NORMAL":15
					},
					"indices":16,
					"material":3
				}
			]
		},
		{
			"name":"petitpoisson.013_petitpoisson_0",
			"primitives":[
				{
					"attributes":{
						"POSITION":17,
						"NORMAL":18
					},
					"indices":19,
					"material":4
				}
			]
		},
		{
			"name":"rayons_rayons_0",
			"primitives":[
				{
					"attributes":{
						"POSITION":20,
						"NORMAL":21
					},
					"indices":22,
					"material":5
				}
			]
		}
	],
	"skins":[
		{
			"inverseBindMatrices":9,
			"joints":[
				31,
				30,
				19,
				18,
				17,
				6,
				5,
				4,
				10,
				9,
				8,
				7,
				14,
				13,
				12,
				11,
				15,
				16,
				20,
				21,
				25,
				24,
				23,
				22,
				29,
				28,
				27,
				26
			],
			"name":"GLTF_created_0"
		}
	],
	"accessors":[
		{
			"bufferView":0,
			"componentType":5126,
			"count":66083,
			"max":[
				0.8063863515853882,
				0.7900221943855286,
				0.34283632040023804
			],
			"min":[
				-0.7954074740409851,
				-0.8564085364341736,
				-1.138784646987915
			],
			"type":"VEC3"
		},
		{
			"bufferView":1,
			"componentType":5126,
			"count":66083,
			"type":"VEC3"
		},
		{
			"bufferView":2,
			"componentType":5125,
			"count":389400,
			"type":"SCALAR"
		},
		{
			"bufferView":3,
			"componentType":5126,
			"count":17955,
			"max":[
				1.8237742185592651,
				0.4640120565891266,
				0.30483004450798035
			],
			"min":[
				-1.8025867938995361,
				-4.005377769470215,
				-0.5982531309127808
			],
			"type":"VEC3"
		},
		{
			"bufferView":4,
			"componentType":5126,
			"count":17955,
			"type":"VEC3"
		},
		{
			"bufferView":5,
			"componentType":5126,
			"count":17955,
			"type":"VEC2"
		},
		{
			"bufferView":6,
			"componentType":5121,
			"count":17955,
			"type":"VEC4"
		},
		{
			"bufferView":7,
			"componentType":5126,
			"count":17955,
			"type":"VEC4"
		},
		{
			"bufferView":8,
			"componentType":5123,
			"count":99720,
			"type":"SCALAR"
		},
		{
			"bufferView":9,
			"componentType":5126,
			"count":28,
			"type":"MAT4"
		},
		{
			"bufferView":10,
			"componentType":5126,
			"count":4,
			"max":[
				1,
				0,
				1
			],
			"min":[
				-1,
				0,
				-1
			],
			"type":"VEC3"
		},
		{
			"bufferView":11,
			"componentType":5126,
			"count":4,
			"type":"VEC3"
		},
		{
			"bufferView":12,
			"componentType":5126,
			"count":4,
			"type":"VEC2"
		},
		{
			"bufferView":13,
			"componentType":5123,
			"count":6,
			"type":"SCALAR"
		},
		{
			"bufferView":14,
			"componentType":5126,
			"count":1428,
			"max":[
				35.50691223144531,
				15.865777015686035,
				57.8193359375
			],
			"min":[
				-6.693845748901367,
				-6.133583068847656,
				-21.214765548706055
			],
			"type":"VEC3"
		},
		{
			"bufferView":15,
			"componentType":5126,
			"count":1428,
			"type":"VEC3"
		},
		{
			"bufferView":16,
			"componentType":5123,
			"count":8160,
			"type":"SCALAR"
		},
		{
			"bufferView":17,
			"componentType":5126,
			"count":22624,
			"max":[
				0.8307257890701294,
				0.12154722958803177,
				0.9064936637878418
			],
			"min":[
				-0.17089912295341492,
				-1.5021421909332275,
				-1.1157455444335938
			],
			"type":"VEC3"
		},
		{
			"bufferView":18,
			"componentType":5126,
			"count":22624,
			"type":"VEC3"
		},
		{
			"bufferView":19,
			"componentType":5123,
			"count":23028,
			"type":"SCALAR"
		},
		{
			"bufferView":20,
			"componentType":5126,
			"count":120,
			"max":[
				0.6333936452865601,
				1.0015819072723389,
				0.6182447075843811
			],
			"min":[
				-0.6211782097816467,
				-1.7207355499267578,
				-0.6351609230041504
			],
			"type":"VEC3"
		},
		{
			"bufferView":21,
			"componentType":5126,
			"count":120,
			"type":"VEC3"
		},
		{
			"bufferView":22,
			"componentType":5123,
			"count":180,
			"type":"SCALAR"
		}
	],
	"bufferViews":[
		{
			"buffer":0,
			"byteLength":792996,
			"byteOffset":0,
			"target":34962
		},
		{
			"buffer":0,
			"byteLength":792996,
			"byteOffset":792996,
			"target":34962
		},
		{
			"buffer":0,
			"byteLength":1557600,
			"byteOffset":1585992,
			"target":34963
		},
		{
			"buffer":0,
			"byteLength":215460,
			"byteOffset":3143592,
			"target":34962
		},
		{
			"buffer":0,
			"byteLength":215460,
			"byteOffset":3359052,
			"target":34962
		},
		{
			"buffer":0,
			"byteLength":143640,
			"byteOffset":3574512,
			"target":34962
		},
		{
			"buffer":0,
			"byteLength":71820,
			"byteOffset":3718152,
			"target":34962
		},
		{
			"buffer":0,
			"byteLength":287280,
			"byteOffset":3789972,
			"target":34962
		},
		{
			"buffer":0,
			"byteLength":199440,
			"byteOffset":4077252,
			"target":34963
		},
		{
			"buffer":0,
			"byteLength":1792,
			"byteOffset":4276692
		},
		{
			"buffer":0,
			"byteLength":48,
			"byteOffset":4278484,
			"target":34962
		},
		{
			"buffer":0,
			"byteLength":48,
			"byteOffset":4278532,
			"target":34962
		},
		{
			"buffer":0,
			"byteLength":32,
			"byteOffset":4278580,
			"target":34962
		},
		{
			"buffer":0,
			"byteLength":12,
			"byteOffset":4278612,
			"target":34963
		},
		{
			"buffer":0,
			"byteLength":17136,
			"byteOffset":4278624,
			"target":34962
		},
		{
			"buffer":0,
			"byteLength":17136,
			"byteOffset":4295760,
			"target":34962
		},
		{
			"buffer":0,
			"byteLength":16320,
			"byteOffset":4312896,
			"target":34963
		},
		{
			"buffer":0,
			"byteLength":271488,
			"byteOffset":4329216,
			"target":34962
		},
		{
			"buffer":0,
			"byteLength":271488,
			"byteOffset":4600704,
			"target":34962
		},
		{
			"buffer":0,
			"byteLength":46056,
			"byteOffset":4872192,
			"target":34963
		},
		{
			"buffer":0,
			"byteLength":1440,
			"byteOffset":4918248,
			"target":34962
		},
		{
			"buffer":0,
			"byteLength":1440,
			"byteOffset":4919688,
			"target":34962
		},
		{
			"buffer":0,
			"byteLength":360,
			"byteOffset":4921128,
			"target":34963
		}
	],
	"buffers":[
		{
			"byteLength":4921488,
			"uri":"scene.bin"
		}
	]
}
